<!-- a nice logo -->
<svg
  width="92"
  height="92"
  fill="none"
  xmlns="http://www.w3.org/2000/svg"
  viewBox="0 0 92 92"
>
  <circle cx="46" cy="46" r="46" fill="#1A202C" />
  <path
    d="M46.5 45.25L46.5 46.75M46.5 46.75L48.25 46.75M46.5 46.75L44.75 46.75M48.25 46.75L48.25 45.25M48.25 46.75L48.25 48.25M48.25 46.75L49.75 46.75M44.75 46.75L44.75 48.25M44.75 46.75L44.75 45.25M46.5 46.75L47.75 46.75M46.5 46.75L45.25 46.75M46.5 45.25L46.5 48.25M49.75 46.75L49.75 48.25M49.75 46.75L49.75 45.25M47.75 46.75L47.75 48.25M47.75 46.75L47.75 45.25M45.25 46.75L45.25 48.25M45.25 46.75L45.25 45.25"
    stroke="#F7FAFC"
    stroke-width="2"
  />
  <animateTransform
    attributeName="transform"
    type="rotate"
    from="0 46 46"
    to="360 46 46"
    dur="30s"
    repeatCount="indefinite"
  />
</svg>
